<?xml version="1.0" standalone="no"?>
<!DOCTYPE svg PUBLIC "-//W3C//DTD SVG 20010904//EN"
 "http://www.w3.org/TR/2001/REC-SVG-20010904/DTD/svg10.dtd">
<svg version="1.0" xmlns="http://www.w3.org/2000/svg"
 width="260.000000pt" height="260.000000pt" viewBox="0 0 260.000000 260.000000"
 preserveAspectRatio="xMidYMid meet">
<metadata>
Created by potrace 1.11, written by Peter Selinger 2001-2013
</metadata>
<g transform="translate(0.000000,260.000000) scale(0.100000,-0.100000)"
fill="#000000" stroke="none">
<path d="M1148 2493 c-10 -12 -9 -17 4 -24 26 -15 72 -63 85 -89 22 -44 24
-106 8 -176 -15 -65 -91 -232 -121 -265 -8 -8 -14 -18 -14 -21 0 -3 -25 -48
-56 -99 -102 -168 -136 -261 -139 -379 -2 -47 2 -91 7 -97 6 -7 8 -13 4 -13
-10 0 40 -92 66 -120 79 -88 216 -121 318 -78 42 18 100 75 100 99 0 25 17 33
28 12 27 -56 -21 -134 -103 -169 -61 -25 -135 -22 -231 11 -47 16 -69 25 -159
66 -78 35 -221 78 -275 82 -137 9 -273 -64 -344 -185 -27 -46 -70 -168 -59
-168 3 0 0 -6 -6 -14 -9 -11 -9 -15 1 -20 10 -5 10 -7 1 -12 -7 -3 -13 -10
-13 -15 0 -6 4 -8 8 -5 5 3 9 -1 9 -9 0 -8 -5 -12 -10 -8 -5 3 -4 -4 2 -15 6
-11 11 -30 11 -41 0 -32 40 -131 62 -153 23 -23 31 -18 33 22 1 16 4 33 8 36
4 4 7 16 7 26 0 21 67 91 107 111 68 35 158 45 415 46 139 0 267 3 283 7 184
34 279 94 332 211 50 110 33 225 -49 323 -39 47 -122 72 -188 58 -33 -7 -19
18 20 38 70 35 146 18 202 -44 23 -27 74 -113 69 -119 0 -2 -1 -4 0 -5 9 -29
20 -89 24 -132 2 -22 6 -54 9 -71 3 -16 7 -50 10 -75 24 -208 93 -332 216
-391 25 -13 55 -27 68 -33 26 -11 159 -14 210 -4 88 17 206 97 268 182 47 64
39 89 -18 60 -74 -38 -174 -14 -251 61 -43 42 -117 139 -117 155 0 5 -4 10 -9
10 -5 0 -11 8 -14 17 -3 10 -29 59 -57 108 -28 50 -58 105 -67 123 -9 17 -20
32 -25 32 -4 0 -8 5 -8 12 0 16 -77 117 -119 156 -44 40 -105 83 -123 86 -7 2
-22 7 -33 12 -22 9 -147 11 -180 2 -93 -25 -182 -114 -201 -202 -14 -61 11
-176 38 -176 4 0 8 -4 8 -10 0 -20 -40 -10 -70 18 -53 46 -61 142 -20 222 21
39 88 112 139 150 19 14 39 30 45 35 6 6 46 36 88 68 84 64 169 151 195 201
65 123 45 300 -47 415 -57 73 -200 161 -262 161 -13 0 -17 4 -12 13 5 7 0 6
-11 -3 -10 -8 -16 -10 -13 -4 11 17 -69 14 -84 -3z"/>
<path d="M1097 2393 c-4 -3 -7 -15 -7 -25 0 -31 -47 -114 -122 -216 -40 -53
-75 -99 -78 -102 -4 -3 -47 -61 -96 -130 -82 -115 -149 -237 -156 -285 -2 -11
-6 -24 -9 -30 -4 -5 -5 -46 -4 -90 3 -142 75 -234 194 -251 40 -6 47 3 28 34
-5 6 -5 12 -1 12 3 0 1 7 -6 15 -7 8 -10 15 -7 15 3 0 1 15 -4 33 -22 74 -6
214 38 313 9 21 17 41 18 44 3 14 61 119 125 225 40 66 84 140 97 165 14 25
30 50 35 56 13 17 20 51 23 109 3 68 -40 136 -68 108z"/>
<path d="M632 1935 c-64 -64 -128 -131 -142 -151 -14 -19 -29 -41 -35 -47 -78
-95 -75 -247 8 -323 78 -73 112 -77 92 -11 -15 50 -17 167 -3 211 5 17 10 36
12 41 9 38 25 70 69 145 53 88 60 98 90 131 9 10 14 19 11 19 -4 0 6 16 21 35
26 34 28 65 5 65 -6 0 -64 -52 -128 -115z"/>
<path d="M1773 1956 c-63 -30 -68 -51 -15 -61 92 -17 194 -90 261 -188 16 -23
59 -104 96 -179 51 -103 73 -138 86 -138 19 0 20 21 2 94 -2 11 -8 37 -13 56
-4 19 -20 76 -35 125 -64 215 -139 300 -273 311 -46 4 -67 0 -109 -20z"/>
<path d="M1602 1803 c-89 -36 -139 -111 -76 -114 97 -5 242 -96 324 -205 36
-47 160 -248 160 -259 0 -4 115 -208 133 -236 21 -32 85 -78 115 -84 12 -2 27
-7 32 -10 6 -3 10 -1 10 4 0 6 3 10 8 10 41 -7 60 24 21 36 -11 4 -18 9 -15
13 3 3 -2 11 -12 18 -16 11 -112 191 -112 210 0 3 -13 36 -29 72 -26 61 -41
99 -46 112 -7 21 -43 97 -72 155 -70 139 -132 210 -228 261 -80 43 -138 48
-213 17z"/>
<path d="M1540 932 c0 -9 -49 -62 -91 -97 -35 -29 -127 -71 -200 -91 -53 -15
-113 -18 -359 -20 -162 -1 -308 -5 -323 -8 -45 -10 -95 -48 -113 -84 -18 -39
-12 -71 10 -53 12 10 101 25 131 22 6 0 35 -2 65 -5 54 -4 120 -12 170 -21
167 -29 412 -39 494 -20 112 27 188 76 233 152 31 53 39 139 18 189 -13 31
-35 54 -35 36z"/>
<path d="M1566 589 c-43 -44 -141 -95 -202 -106 -48 -8 -242 -8 -350 1 -71 6
-82 5 -88 -10 -4 -9 -5 -18 -4 -20 5 -4 231 -71 268 -79 19 -4 41 -12 48 -17
8 -7 12 -7 12 1 0 8 11 7 35 -4 22 -8 33 -10 29 -3 -5 7 -3 8 7 2 19 -12 78
-14 85 -3 3 5 11 9 17 9 7 0 6 -4 -3 -10 -8 -5 -10 -10 -4 -10 5 0 15 5 22 12
7 7 12 9 12 5 0 -4 21 4 48 17 82 42 122 102 130 193 6 77 -5 80 -62 22z"/>
</g>
</svg>
